<svg class="lds-gear-set" width="100%" height="100%" xmlns="http://www.w3.org/2000/svg" xmlns:xlink="http://www.w3.org/1999/xlink" viewBox="0 0 100 100" preserveAspectRatio="xMidYMid"><g transform="translate(50 50)"> <g transform="translate(-17 -17) scale(0.5)"> <g transform="rotate(93)">
  <animateTransform attributeName="transform" type="rotate" values="0;360" keyTimes="0;1" dur="2s" begin="0s" repeatCount="indefinite"></animateTransform><path d="M37.14835124201342 -8 L49.14835124201342 -8 L49.14835124201342 8 L37.14835124201342 8 A38 38 0 0 1 31.924705322619776 20.610996823635016 L31.924705322619776 20.610996823635016 L40.40998669685835 29.096278197873588 L29.096278197873588 40.40998669685835 L20.610996823635016 31.924705322619776 A38 38 0 0 1 8 37.14835124201342 L8 37.14835124201342 L8 49.14835124201342 L-7.999999999999995 49.14835124201342 L-7.999999999999996 37.14835124201342 A38 38 0 0 1 -20.610996823635006 31.92470532261978 L-20.610996823635006 31.92470532261978 L-29.096278197873573 40.409986696858354 L-40.40998669685834 29.096278197873584 L-31.924705322619776 20.610996823635013 A38 38 0 0 1 -37.14835124201342 8.00000000000001 L-37.14835124201342 8.00000000000001 L-49.14835124201342 8.000000000000012 L-49.14835124201342 -8 L-37.14835124201342 -8.000000000000002 A38 38 0 0 1 -31.924705322619783 -20.610996823635006 L-31.924705322619783 -20.610996823635006 L-40.409986696858354 -29.096278197873573 L-29.096278197873602 -40.40998669685833 L-20.61099682363503 -31.924705322619765 A38 38 0 0 1 -7.9999999999999964 -37.14835124201342 L-7.9999999999999964 -37.14835124201342 L-7.999999999999999 -49.14835124201342 L7.99999999999998 -49.14835124201342 L7.999999999999982 -37.14835124201342 A38 38 0 0 1 20.610996823635016 -31.924705322619776 L20.610996823635016 -31.924705322619776 L29.096278197873584 -40.40998669685835 L40.40998669685833 -29.096278197873602 L31.924705322619765 -20.61099682363503 A38 38 0 0 1 37.14835124201342 -7.999999999999998 M0 -18A18 18 0 1 0 0 18 A18 18 0 1 0 0 -18" fill="#254441"></path></g></g> <g transform="translate(0 22) scale(0.4)"> <g transform="rotate(244.5)">
  <animateTransform attributeName="transform" type="rotate" values="360;0" keyTimes="0;1" dur="2s" begin="-0.125s" repeatCount="indefinite"></animateTransform><path d="M37.14835124201342 -8 L49.14835124201342 -8 L49.14835124201342 8 L37.14835124201342 8 A38 38 0 0 1 31.924705322619776 20.610996823635016 L31.924705322619776 20.610996823635016 L40.40998669685835 29.096278197873588 L29.096278197873588 40.40998669685835 L20.610996823635016 31.924705322619776 A38 38 0 0 1 8 37.14835124201342 L8 37.14835124201342 L8 49.14835124201342 L-7.999999999999995 49.14835124201342 L-7.999999999999996 37.14835124201342 A38 38 0 0 1 -20.610996823635006 31.92470532261978 L-20.610996823635006 31.92470532261978 L-29.096278197873573 40.409986696858354 L-40.40998669685834 29.096278197873584 L-31.924705322619776 20.610996823635013 A38 38 0 0 1 -37.14835124201342 8.00000000000001 L-37.14835124201342 8.00000000000001 L-49.14835124201342 8.000000000000012 L-49.14835124201342 -8 L-37.14835124201342 -8.000000000000002 A38 38 0 0 1 -31.924705322619783 -20.610996823635006 L-31.924705322619783 -20.610996823635006 L-40.409986696858354 -29.096278197873573 L-29.096278197873602 -40.40998669685833 L-20.61099682363503 -31.924705322619765 A38 38 0 0 1 -7.9999999999999964 -37.14835124201342 L-7.9999999999999964 -37.14835124201342 L-7.999999999999999 -49.14835124201342 L7.99999999999998 -49.14835124201342 L7.999999999999982 -37.14835124201342 A38 38 0 0 1 20.610996823635016 -31.924705322619776 L20.610996823635016 -31.924705322619776 L29.096278197873584 -40.40998669685835 L40.40998669685833 -29.096278197873602 L31.924705322619765 -20.61099682363503 A38 38 0 0 1 37.14835124201342 -7.999999999999998 M0 -18A18 18 0 1 0 0 18 A18 18 0 1 0 0 -18" fill="#43aa8b"></path></g></g> <g transform="translate(28 4) scale(0.3)"> <g transform="rotate(115.5)">
  <animateTransform attributeName="transform" type="rotate" values="0;360" keyTimes="0;1" dur="2s" begin="-0.125s" repeatCount="indefinite"></animateTransform><path d="M37.14835124201342 -8 L49.14835124201342 -8 L49.14835124201342 8 L37.14835124201342 8 A38 38 0 0 1 31.924705322619776 20.610996823635016 L31.924705322619776 20.610996823635016 L40.40998669685835 29.096278197873588 L29.096278197873588 40.40998669685835 L20.610996823635016 31.924705322619776 A38 38 0 0 1 8 37.14835124201342 L8 37.14835124201342 L8 49.14835124201342 L-7.999999999999995 49.14835124201342 L-7.999999999999996 37.14835124201342 A38 38 0 0 1 -20.610996823635006 31.92470532261978 L-20.610996823635006 31.92470532261978 L-29.096278197873573 40.409986696858354 L-40.40998669685834 29.096278197873584 L-31.924705322619776 20.610996823635013 A38 38 0 0 1 -37.14835124201342 8.00000000000001 L-37.14835124201342 8.00000000000001 L-49.14835124201342 8.000000000000012 L-49.14835124201342 -8 L-37.14835124201342 -8.000000000000002 A38 38 0 0 1 -31.924705322619783 -20.610996823635006 L-31.924705322619783 -20.610996823635006 L-40.409986696858354 -29.096278197873573 L-29.096278197873602 -40.40998669685833 L-20.61099682363503 -31.924705322619765 A38 38 0 0 1 -7.9999999999999964 -37.14835124201342 L-7.9999999999999964 -37.14835124201342 L-7.999999999999999 -49.14835124201342 L7.99999999999998 -49.14835124201342 L7.999999999999982 -37.14835124201342 A38 38 0 0 1 20.610996823635016 -31.924705322619776 L20.610996823635016 -31.924705322619776 L29.096278197873584 -40.40998669685835 L40.40998669685833 -29.096278197873602 L31.924705322619765 -20.61099682363503 A38 38 0 0 1 37.14835124201342 -7.999999999999998 M0 -18A18 18 0 1 0 0 18 A18 18 0 1 0 0 -18" fill="#b2b09b"></path></g></g></g></svg>
